<svg width="326" height="300" viewBox="0 0 326 300" fill="none" xmlns="http://www.w3.org/2000/svg">
<path d="M309.604 205.191C303.618 219.27 294.91 232.6 282.528 241.578C267.153 252.596 247.833 255.928 229.397 260.145C188.579 269.395 148.305 284.289 106.466 283.269C64.6279 282.181 19.2519 259.601 8.63922 219.134C-2.99392 174.858 29.8646 132.691 44.9673 89.4354C50.4097 73.9287 53.7431 57.2658 63.1993 43.7995C104.902 -15.6428 176.197 39.1747 225.723 53.4572C296.066 73.7247 341.034 131.059 309.604 205.191Z" fill="#353F5E"/>
<path d="M158.79 163.616C153.429 163.33 147.701 163.113 142 162.684C139.279 162.48 136.571 161.868 133.87 161.46C133.748 161.44 133.625 161.399 133.51 161.344C131.618 160.589 131.387 160.311 132.081 158.393C133.857 153.489 135.734 148.633 137.564 143.763C138.061 142.43 139.224 142.321 140.374 142.301C144.769 142.192 149.17 142.158 153.565 142.022C160.613 141.798 167.667 141.532 174.715 141.254C178.539 141.104 182.362 140.914 186.185 140.71C187.662 140.546 189.083 141.301 189.77 142.607C192.601 147.211 195.124 151.999 197.342 156.93C197.444 157.162 197.526 157.4 197.587 157.644C197.934 159.154 197.628 159.834 196.111 160.154C193.362 160.725 190.594 161.263 187.804 161.589C183.001 162.14 178.192 162.609 173.368 162.949C168.634 163.262 163.885 163.391 158.783 163.623L158.79 163.616ZM171.974 145.239C172.144 146.178 171.722 146.416 170.824 146.402C168.987 146.348 167.15 146.361 165.314 146.423C164.939 146.429 164.586 146.518 164.382 146.382C164.137 145.783 163.973 145.164 163.885 144.525C163.783 144.103 163.64 144.185 163.599 144.566V146.341H154.871C154.871 145.674 154.857 145.144 154.857 144.552C154.721 143.702 154.266 144.117 154.184 144.634C154.184 145.219 154.123 145.797 154 146.368H145.524C145.707 142.832 145.224 144.498 145.116 145.654C145.088 145.912 145.061 146.11 145.034 146.321C145.02 146.47 144.803 146.436 144.218 146.463C143.109 146.511 142 146.525 140.898 146.579C138.319 146.484 139.34 147.041 140.156 147.001C141.721 147.001 143.19 147.089 144.871 147.089C144.598 148.946 144.394 150.571 144.102 152.183C144.061 152.394 144.027 152.68 143.911 152.72C142.265 152.734 140.313 152.72 138.21 152.625C136.619 153.319 142.081 152.877 143.939 153.387C143.884 154.155 143.782 155.094 143.728 155.829C143.66 156.515 143.959 156.645 144 155.842C144.095 155.359 144.197 154.876 144.286 154.393C144.388 153.829 144.442 153.414 144.619 153.38C144.966 153.339 145.313 153.326 145.653 153.339C147.619 153.38 149.395 153.428 151.354 153.414C152.299 153.407 153.238 153.414 154.218 153.414C154.361 155.155 154.49 156.808 154.619 158.474C154.687 158.467 154.762 158.467 154.83 158.461C154.912 156.767 154.987 155.08 155.062 153.421C155.15 153.401 155.238 153.394 155.32 153.407C158.266 153.339 161.15 153.156 164.096 153.135C164.198 153.135 164.538 153.115 164.613 153.183C164.667 153.394 164.701 153.605 164.708 153.822C164.899 155.264 164.987 156.726 165.15 158.161C165.218 158.78 165.402 159.386 165.531 159.998C165.647 160.317 165.858 160.324 165.899 159.95C165.769 157.699 165.654 155.461 165.525 153.196C165.661 153.176 165.797 153.176 165.94 153.19C168.382 153.21 170.804 153.142 173.232 153.21C173.566 153.299 173.838 153.537 173.974 153.849C174.491 155.169 174.926 156.536 175.409 157.869C175.688 158.644 176.008 159.406 176.314 160.168C176.498 160.419 176.654 160.447 176.668 160.038C176.022 157.801 175.375 155.557 174.702 153.244C177.375 153.244 179.872 153.278 182.369 153.231C182.675 153.224 182.886 153.217 183.103 153.19C183.219 153.183 183.457 153.802 183.627 154.155C184.158 155.298 184.879 156.339 185.451 157.454C185.607 157.753 185.804 157.746 185.743 157.325C185.246 155.985 184.41 154.421 183.927 153.128C186.192 152.924 188.811 152.952 191.083 152.741C191.478 152.741 191.505 152.442 191.049 152.469C189.505 152.469 187.961 152.476 186.417 152.469C185.471 152.489 184.532 152.448 183.587 152.353C183.138 152.278 182.961 151.251 182.274 149.946C181.811 149.075 181.41 148.17 180.865 147.035H190.349C190.689 147.014 190.845 146.742 189.859 146.661C187.015 146.45 184.274 146.45 181.43 146.361C181.103 146.443 180.756 146.409 180.457 146.259C180.26 146.062 180.124 145.817 180.069 145.545C179.899 145.055 179.709 144.579 179.491 144.11C179.26 143.593 179.124 143.818 179.158 144.226C179.294 144.865 179.437 145.504 179.593 146.259C177.736 146.259 175.974 146.218 174.205 146.273C173.246 146.307 172.416 146.314 172.423 145.021C172.246 143.926 171.885 144.369 171.974 145.239Z" fill="#00C26D"/>
<path d="M248.895 146.137C243.772 144.607 238.717 143.11 233.615 141.601C233.187 144.96 233.18 148.334 231.867 151.496C231.35 148.041 232.193 144.702 232.581 141.193C230.316 140.553 228.037 139.894 225.662 139.22C225.798 141.784 225.921 144.212 226.057 146.831C225.254 146.538 224.744 145.749 224.798 144.899C224.649 143.226 224.52 141.546 224.52 139.88C224.52 139.077 224.241 138.819 223.526 138.615C218.526 137.125 213.546 135.609 208.573 134.065C207.498 133.698 206.458 133.249 205.458 132.711C204.253 132.133 203.478 130.923 203.464 129.583C203.09 122.632 202.627 115.681 202.451 108.724C202.301 102.589 202.457 96.4408 202.546 90.2993C202.525 88.3338 202.845 86.3819 203.498 84.5251C203.934 82.8997 205.437 81.7979 207.117 81.8523C209.893 81.8727 212.662 82.0835 215.41 82.4984C224.111 84.0082 232.588 86.4771 241.112 88.7487C248.493 90.6258 255.779 92.8702 262.929 95.4818C264.582 96.1075 266.249 96.7196 267.861 97.4338C268.868 97.8895 269.828 98.4404 270.719 99.0865C273.413 101.011 273.787 103.732 272.902 106.636C271.991 109.655 270.78 112.573 269.732 115.552C267.521 121.333 264.984 126.985 262.147 132.48C260.569 135.752 258.922 138.989 257.167 142.165C256.46 143.389 255.555 144.491 254.494 145.43C253.33 146.457 251.745 146.858 250.235 146.497C248.623 148.674 248.636 151.653 250.276 153.816C252.371 156.896 254.514 159.95 256.46 163.126C257.603 165.017 258.072 167.241 257.786 169.438C257.426 172.628 255.269 174.416 252.589 175.709C249.024 177.293 245.214 178.245 241.323 178.524C230.037 179.64 218.683 179.952 207.349 179.456C201.24 179.232 195.151 178.64 189.062 178.205C183.348 177.803 177.633 177.198 171.919 178.123C169.504 178.477 167.184 179.306 165.095 180.565C163.537 181.306 162.558 182.884 162.585 184.604C162.605 185.332 162.49 186.06 162.497 186.781C162.408 187.502 162.653 188.23 163.17 188.746C163.463 189.148 163.673 189.603 163.782 190.086C166.612 190.086 169.354 190.107 172.109 190.079C182.912 189.971 193.716 189.848 204.512 189.712C204.954 189.733 205.396 189.726 205.838 189.692C207.668 189.386 208.56 190.27 209.152 191.957C210.172 194.881 211.05 197.846 212.056 200.778C213.988 206.47 215.955 212.129 217.893 217.808C218.07 218.352 218.2 218.91 218.281 219.467C218.444 220.338 217.995 221.208 217.186 221.576C216.37 221.909 215.499 222.113 214.621 222.188C193.845 222.712 173.075 223.201 152.292 222.929C146.782 222.854 141.258 222.977 135.761 222.732C130.55 222.501 125.345 222.004 120.148 221.453C117.345 221.161 116.25 219.801 116.644 217.005C117.025 214.298 117.808 211.653 118.42 208.98C119.209 205.498 119.971 202.016 120.821 198.547C121.175 197.173 121.61 195.82 122.114 194.493C122.556 193.269 123.706 192.446 125.005 192.419C135.08 191.134 145.21 191.025 155.34 190.664C156.578 190.617 157.809 190.549 159.047 190.549C159.639 190.549 159.932 190.345 159.952 189.76C159.891 189.107 160.245 188.488 160.837 188.216C160.979 188.141 161.047 187.801 161.068 187.577C161.129 186.563 161.197 185.55 161.184 184.543C161.17 181.979 162.619 180.381 164.66 179.184C167.367 177.66 170.368 176.715 173.47 176.429C178.647 175.987 183.858 176.089 189.015 176.736C202.573 178.089 216.206 178.47 229.819 177.885C234.983 177.803 240.126 177.307 245.207 176.395C247.589 175.919 249.915 175.192 252.147 174.233C256.126 172.458 257.215 169.492 255.827 165.33C254.861 162.956 253.562 160.739 251.97 158.74C251.065 157.441 250.214 156.114 249.235 154.863C247.459 152.734 247.14 149.748 248.418 147.293C248.602 146.926 248.759 146.545 248.895 146.157V146.137ZM174.191 221.582C187.049 221.324 201.423 221.018 215.798 220.726C216.778 220.705 217.023 220.454 216.737 219.488C216.186 217.617 215.533 215.774 214.927 213.924C212.628 206.933 210.335 199.948 208.036 192.956C207.818 191.746 206.716 190.902 205.492 191.011C190.069 191.324 174.66 191.623 159.238 191.984C148.033 192.242 136.822 192.473 125.651 193.385C124.57 193.371 123.604 194.045 123.25 195.065C122.862 196.166 122.454 197.268 122.175 198.397C121.264 202.077 120.488 205.783 119.515 209.442C118.678 211.959 118.168 214.577 117.991 217.223C117.978 219.161 118.529 219.909 120.468 220.086C125.066 220.528 129.672 221.113 134.278 221.202C147.081 221.446 159.871 221.46 174.177 221.576L174.191 221.582ZM203.743 106.085C204.029 113.165 204.342 120.789 204.628 128.413C204.525 130.018 205.526 131.494 207.056 131.984C210.362 133.147 213.648 134.378 216.995 135.378C222.138 136.921 227.336 138.268 232.499 139.764C238.384 141.465 244.255 143.24 250.126 144.981C251.221 145.375 252.453 145.178 253.364 144.45C254.296 143.702 255.079 142.791 255.684 141.764C258.052 137.438 260.446 133.126 262.548 128.678C264.705 124.115 266.583 119.415 268.447 114.729C269.651 111.811 270.685 108.833 271.562 105.799C272.433 102.63 271.202 100.596 268.188 99.3041C260.235 95.8763 252.044 93.047 243.67 90.8366C234.282 88.3814 224.969 85.6133 215.424 83.8382C212.839 83.4029 210.226 83.1309 207.607 83.0085C206.219 82.7772 204.886 83.641 204.532 85.0012C204.274 85.7766 204.111 86.5791 204.049 87.3952C203.92 93.4347 203.838 99.4741 203.73 106.078L203.743 106.085Z" fill="white"/>
<path d="M228.125 194.446C230.152 190.732 233.642 188.039 237.751 187.012C243.289 185.488 249.187 185.924 254.446 188.236C258.596 189.991 262.106 192.779 263.718 197.139C266.324 204.171 265.406 212.414 259.331 217.828C255.82 220.882 251.473 222.813 246.847 223.371C243.942 223.949 240.935 223.718 238.153 222.705C231.69 220.004 227.506 215.352 226.336 208.293C225.343 202.362 226.213 197.833 228.125 194.439V194.446ZM236.724 203.342C236.921 204.79 236.738 205.98 236.983 207.245C237.33 209.707 238.357 212.02 239.942 213.924C242.731 217.019 246.174 217.4 249.936 216.162C251.976 215.611 253.745 214.346 254.929 212.591C256.392 210.211 256.589 207.266 255.46 204.715C253.568 200.39 250.283 196.819 246.119 194.582C244.779 193.834 243.214 193.575 241.697 193.868C239.445 194.303 237.697 196.064 237.275 198.316C236.996 199.975 236.806 201.655 236.711 203.335L236.724 203.342Z" fill="#00C26D"/>
<path d="M127.739 147.218C126.657 147.613 125.582 147.973 124.548 148.395C123.283 148.919 122.371 148.83 122.024 148.062C121.678 147.293 122.269 146.355 123.474 145.844C124.31 145.491 125.14 145.226 126.038 144.872C126.746 144.593 127.528 144.131 127.093 144.056C126.514 144.253 125.929 144.443 125.365 144.647C124.188 145.076 123.004 145.518 121.814 145.926C121.541 146.028 121.249 146.035 120.977 145.96C120.575 145.797 120.004 145.566 119.909 145.239C119.882 144.79 120.079 144.355 120.439 144.076C121.793 143.212 123.208 142.444 124.61 141.662C126.929 140.519 127.038 140.063 124.991 140.873C124.12 141.247 123.269 141.675 122.412 142.049C120.133 143.042 118.691 142.267 118.378 139.785C118.215 138.438 118.228 137.078 118.147 135.575L103.745 142.77C104.541 145.511 105.31 148.157 106.092 150.809C106.35 151.741 106.119 151.796 105.752 150.925C104.52 148.463 103.575 145.865 102.935 143.192L98.9759 145.11C100.656 147.504 102.479 149.755 102.901 152.693C102.99 153.156 102.901 153.265 102.616 152.85L98.1051 145.518C95.5268 146.729 93.0641 147.932 90.5674 149.048C86.853 150.721 83.1045 152.326 79.3765 153.965C76.8866 155.06 74.5939 154.428 72.4238 152.904C71.1856 152.006 70.1788 150.83 69.4849 149.47C66.9678 144.613 64.4643 139.757 61.988 134.895C59.1919 129.44 56.3891 123.992 53.6407 118.524C52.042 115.341 52.5862 112.138 54.0285 109.118C54.6135 108.227 55.4435 107.52 56.4163 107.091C66.6072 101.419 77.0838 96.2911 87.8122 91.7207C92.3158 89.8028 96.8058 87.8576 101.323 85.9669C103.167 85.144 105.065 84.4434 106.997 83.8517C108.452 83.4369 109.97 83.26 111.48 83.3348C114.841 83.5593 116.725 85.4024 117.426 88.7214C118.548 94.0059 119.603 99.3108 120.882 104.555C121.814 108.384 123.106 112.131 124.133 115.94C125.011 119.204 125.725 122.51 126.528 125.795C126.963 127.815 126.358 129.923 124.916 131.399C123.65 132.82 122.038 133.895 120.242 134.527C119.63 134.657 119.235 135.255 119.365 135.867C119.365 135.894 119.378 135.922 119.385 135.942C119.521 136.847 119.473 137.771 119.521 138.69C119.528 139.071 119.575 139.445 119.657 139.812C120.052 141.294 120.494 141.505 121.888 140.914C123.052 140.424 124.188 139.866 125.372 139.431C126.059 139.207 126.793 139.139 127.508 139.234C127.943 139.227 128.304 139.574 128.31 140.009C128.31 140.179 128.263 140.342 128.168 140.478C127.671 141.274 126.957 141.913 126.12 142.321C124.691 143.104 123.215 143.784 121.746 144.511C121.562 144.736 120.95 145.287 124.161 144.015C124.95 143.709 125.739 143.355 126.542 143.117C126.943 143.015 127.358 143.022 127.753 143.144C128.079 143.246 128.515 143.532 128.569 143.791C128.61 144.185 128.467 144.573 128.174 144.838C127.113 145.45 125.984 145.933 124.882 146.47C121.956 147.647 123.127 147.64 124.637 147.15C125.65 146.817 126.766 146.688 127.821 146.416C128.208 146.232 128.583 146.028 128.943 145.797C129.372 145.62 129.685 145.668 129.957 145.198C130.889 143.586 131.862 142.002 132.834 140.397C132.896 140.288 134.236 139.424 133.066 142.036C130.358 146.817 127.61 151.578 124.923 156.366C124.29 157.556 123.746 158.801 123.317 160.079C122.902 161.256 123.303 162.569 124.303 163.317C126.099 164.833 128.249 165.874 130.562 166.336C134.576 167.275 138.671 167.778 142.787 167.846C151.965 168.132 161.142 168.445 170.326 168.397C176.455 168.363 182.592 167.819 188.714 167.363C192.905 167.044 197.096 166.547 201.259 165.983C203.837 165.752 206.266 164.677 208.171 162.929C210.185 160.964 210.375 159.542 208.79 157.27C204.797 151.578 200.796 145.899 196.776 140.227C196.497 139.88 196.266 139.499 196.089 139.098C196.048 138.785 196.062 138.472 196.136 138.166C196.429 138.268 196.844 138.282 197.007 138.492C198.177 139.941 199.354 141.397 200.429 142.92C203.769 147.674 207.103 152.442 210.375 157.243C211.681 158.923 211.559 161.31 210.089 162.847C208.049 165.411 205.042 167.023 201.776 167.295C195.402 168.071 189.007 168.826 182.612 169.22C174.748 169.703 166.849 169.989 158.972 170.002C153.38 170.009 147.774 169.526 142.189 169.091C138.413 168.798 134.637 168.282 130.896 167.724C128.542 167.357 126.304 166.445 124.365 165.065C121.943 163.371 121.242 161.399 122.392 158.644C123.154 156.822 124.249 155.135 125.188 153.387C125.372 153.047 125.528 152.68 125.691 152.326C125.61 152.265 125.535 152.21 125.46 152.142C124.644 152.959 123.834 153.754 123.038 154.584C120.433 157.291 117.929 160.107 115.215 162.698C111.806 165.928 107.541 167.663 103.133 169.043C98.8262 170.397 94.4519 171.58 90.2 173.11C84.1522 175.28 79.22 179.177 74.798 183.734C70.0427 188.549 66.3011 194.262 63.7908 200.54C60.7702 207.987 59.6273 216.067 60.4505 224.065C60.6954 226.561 61.4709 228.975 62.7295 231.145C64.8044 235.008 69.0495 237.178 73.3966 236.593C77.4308 236.253 81.118 234.722 84.7984 233.185C88.9619 231.444 93.1049 229.635 97.3432 228.064C98.9963 227.533 100.711 227.241 102.445 227.187C106.412 227.044 105.895 227.676 104.731 228.023C98.282 228.01 92.894 231.186 87.2611 233.532C83.3358 235.368 79.2268 236.769 75.0021 237.715C68.7093 239.089 62.403 235.464 60.4233 229.336C59.0831 225.33 58.5729 221.1 58.9266 216.89C59.3416 207.286 62.4642 197.996 67.9406 190.093C73.1925 182.523 79.6486 176.191 88.268 172.532C91.9212 170.982 95.8261 170.036 99.595 168.771C102.439 167.819 105.296 166.894 108.072 165.779C112.432 164.024 115.677 160.746 118.861 157.42C120.875 155.325 122.902 153.244 124.984 151.217C125.378 150.735 125.814 150.279 126.283 149.864C126.651 149.633 126.97 149.81 127.31 149.538C128.025 148.987 128.004 148.191 127.773 147.205L127.739 147.218ZM55.2938 118.83C57.0694 122.7 59.0695 126.482 60.9879 130.283C63.9608 136.214 66.9406 142.138 69.8795 148.089C70.9203 150.32 72.7843 152.061 75.077 152.952C76.4648 153.55 78.0431 153.523 79.4105 152.87C81.3901 151.904 83.3766 150.945 85.3699 149.986C89.8395 147.844 94.3227 145.722 98.7786 143.552C105.793 140.138 112.813 136.731 119.8 133.235C121.235 132.514 122.562 131.596 123.746 130.521C124.963 129.583 125.548 128.039 125.256 126.529C124.018 121.537 122.698 116.552 121.399 111.573C120.541 108.302 119.555 105.065 118.779 101.78C117.732 97.3861 116.861 92.9585 115.868 88.5445C115.664 87.1027 114.766 85.8581 113.46 85.2052C111.602 84.321 109.466 84.219 107.534 84.9263C103.86 86.273 100.2 87.6876 96.6153 89.2655C83.4855 95.0465 70.3829 100.889 57.7089 107.635C53.3414 109.873 54.5523 117.232 55.287 118.83H55.2938Z" fill="white"/>
<path d="M81.6962 223.364C81.0907 223.425 80.5465 222.99 80.4852 222.385C80.4784 222.29 80.4784 222.194 80.492 222.099C80.5329 221.263 81.1111 221.106 81.805 221.072C87.6488 220.78 93.4926 220.481 99.3432 220.181C101.2 220.079 103.064 219.882 104.928 219.794C105.786 219.753 106.037 219.345 105.779 218.644C105.221 217.168 104.616 215.72 103.976 214.278C103.649 213.591 102.901 213.21 102.153 213.346C99.35 213.591 96.5471 213.863 93.7443 214.108C91.7578 214.285 89.7782 214.475 87.7917 214.598C86.0297 214.713 84.2541 214.795 82.4853 214.802C81.8254 214.768 81.1724 214.638 80.5533 214.407C80.1111 214.305 79.839 213.863 79.9478 213.421C79.9682 213.339 80.0022 213.258 80.0499 213.183C82.1656 208.007 83.1928 202.539 84.3562 197.105C85.0501 193.827 85.8936 190.589 86.6692 187.325C86.8733 186.461 87.0978 185.604 87.3359 184.761C87.5128 183.958 88.2543 183.414 89.0706 183.469C95.4246 183.129 101.765 182.782 108.112 182.36C111.133 182.163 112.106 182.748 113.378 185.591C113.704 186.611 113.766 187.706 113.555 188.76C112.82 194.527 112.119 200.301 111.16 206.035C110.446 210.292 109.364 214.489 108.446 218.719C108.378 218.964 108.337 219.209 108.31 219.46C108.439 220.739 107.5 221.882 106.221 222.004C106.105 222.018 105.99 222.018 105.867 222.011C103.922 222.208 101.962 222.419 100.017 222.548C93.8327 222.922 85.2269 223.487 81.7098 223.357L81.6962 223.364ZM87.8325 192.092C87.8257 193.221 88.2951 193.67 89.4856 193.623C93.3973 193.459 97.3159 193.317 101.228 193.133C102.398 193.099 103.561 192.983 104.711 192.793C105.173 192.657 105.548 192.317 105.731 191.875C106.207 190.44 106.588 188.971 106.929 187.495C107.187 186.332 106.908 185.978 105.711 185.937C104.105 185.89 102.486 185.849 100.881 185.937C97.2546 186.141 93.6355 186.434 90.0095 186.672C89.4176 186.638 88.9006 187.073 88.8325 187.658C88.5128 189.141 88.1658 190.617 87.8393 192.092H87.8325Z" fill="#00C26D"/>
<path d="M190.327 79.7097C193.715 79.7777 196.674 82.0357 197.62 85.2935C197.926 86.3953 198.11 87.5243 198.164 88.6601C198.389 94.5431 198.613 100.426 198.708 106.316C198.688 112.614 198.28 118.905 197.484 125.155C197.089 128.869 196.702 132.589 196.361 136.302C196.28 137.186 195.797 137.445 195.069 137.472C191.878 137.615 188.681 137.839 185.483 137.867C178.769 137.928 172.054 137.758 165.34 137.941C156.734 138.173 148.128 138.649 139.529 139.016C137.76 139.098 135.998 139.172 134.23 139.268C133.508 139.308 133.257 138.914 133.127 138.261C131.855 131.582 130.399 124.931 129.345 118.225C128.005 109.846 127.284 101.378 127.182 92.8972C127.182 90.9045 127.467 88.9253 128.046 87.021C129.175 83.3143 131.821 81.3624 135.733 80.8387C140.917 80.1926 146.135 79.8661 151.36 79.8729C156.455 79.8253 182.422 79.7097 190.307 79.7097H190.327ZM159.19 81.0495C151.72 81.0904 144.237 80.9135 136.801 81.8385C134.502 82.1241 132.277 82.607 130.814 84.6474C129.692 86.0416 129.012 87.7419 128.862 89.5238C128.699 92.9652 128.719 96.4134 128.916 99.8548C129.372 107.758 130.291 115.62 131.658 123.414C132.508 127.855 133.352 132.296 134.175 136.738C134.202 137.343 134.713 137.819 135.325 137.799C135.406 137.799 135.488 137.785 135.563 137.765C137.264 137.622 138.978 137.567 140.686 137.465C151.938 136.806 163.204 136.33 174.483 136.37C180.851 136.398 187.211 136.275 193.579 136.187C194.946 136.173 194.974 136.098 195.11 134.677C195.688 128.726 196.3 122.775 196.817 116.817C197.681 107.037 197.042 97.2636 196.668 87.4903C196.497 83.0423 193.218 80.8523 189.198 80.8523C181.395 80.8455 161.38 81.0292 159.197 81.0428L159.19 81.0495Z" fill="white"/>
<path d="M127.067 233.498C126.095 231.022 124.271 228.975 121.931 227.724C121.217 227.329 120.537 226.86 119.822 226.459C119.618 226.323 119.38 226.255 119.135 226.262C113.958 227.016 109.346 228.9 105.876 233.022C105.148 233.852 104.767 234.933 104.815 236.042C104.706 238.225 104.992 240.408 105.672 242.489C106.06 243.462 106.631 244.359 107.223 245.495C107.461 245.216 107.672 244.917 107.876 244.611C108.182 243.673 109.189 243.156 110.135 243.462C110.189 243.475 110.237 243.496 110.284 243.516C111.665 243.965 113.006 244.516 114.298 245.169C116.346 246.203 118.353 247.359 120.366 248.481C122.149 249.46 122.292 250.719 121.421 252.364C121.271 252.637 121.142 252.929 121.047 253.228C120.822 254.18 119.877 254.765 118.924 254.548C118.829 254.527 118.741 254.493 118.645 254.459C115.217 253.16 111.938 251.508 108.849 249.535C106.434 248.053 104.618 245.774 103.72 243.088C102.134 238.953 102.42 234.328 104.509 230.417C106.379 227.098 109.713 224.867 113.495 224.391C118.917 223.31 124.475 225.466 127.755 229.914C128.727 231.383 129.557 232.947 130.217 234.579C130.258 234.729 130.272 234.885 130.251 235.042C130.258 238.939 130.258 242.822 130.285 246.719C130.387 247.91 129.523 248.964 128.34 249.1C127.53 249.182 126.72 249.168 125.918 249.059C124.979 249.018 124.244 248.243 124.258 247.304C124.067 243.802 123.877 240.299 123.754 236.79C123.761 236.157 123.89 235.532 124.135 234.947C124.55 233.729 125.87 233.083 127.081 233.498H127.067ZM126.918 246.917C126.979 246.917 127.047 246.924 127.108 246.924V237.762C127.047 237.762 126.979 237.769 126.918 237.769V246.917ZM116.958 249.794C117.019 249.685 117.087 249.562 117.149 249.454L109.584 245.346C109.529 245.448 109.468 245.556 109.407 245.665L116.958 249.8V249.794Z" fill="white"/>
<path d="M242.95 145.225C243.454 145.654 243.896 146.164 244.256 146.722C244.991 148.143 245.535 149.66 245.869 151.224C246.433 155.094 244.338 157.706 241.27 159.678C239.181 160.963 236.794 161.671 234.344 161.718C227.018 162.235 219.8 159.692 214.425 154.686C211.935 152.387 210.459 149.578 210.949 146.069C211.412 142.695 212.942 140.029 216.289 138.724C216.711 138.581 217.146 138.465 217.582 138.377C217.629 138.479 217.677 138.574 217.725 138.676C217.473 138.839 217.221 139.023 216.956 139.179C213.452 141.118 211.684 145.157 212.629 149.048C213.105 150.734 214.065 152.244 215.384 153.394C219.732 157.488 225.426 159.862 231.399 160.066C233.964 160.317 236.549 159.957 238.936 158.998C241.508 157.848 243.603 156.189 244.386 153.319C244.794 151.353 244.515 149.299 243.597 147.511C243.311 146.817 242.984 146.144 242.678 145.45C242.76 145.368 242.855 145.28 242.95 145.198V145.225Z" fill="white"/>
<path d="M89.4109 152.537C87.7033 154.394 88.5945 156.638 89.9415 158.42C91.9688 161.127 94.9894 161.895 98.18 161.977C102.411 161.963 106.561 160.76 110.14 158.508C113.099 157.005 115.487 154.584 116.943 151.605C118.419 148.721 117.915 145.219 115.684 142.872C112.983 139.921 114.317 139.9 114.657 140.186C118.63 143.587 120.63 147.259 117.909 152.789C116.181 156.298 113.181 158.515 109.84 160.27C106.065 162.46 101.738 163.507 97.384 163.29C93.9009 163.004 90.7239 161.984 88.7442 158.774C87.5945 157.053 87.404 154.87 88.2204 152.965C89.9687 150.877 89.9687 151.918 89.4177 152.53L89.4109 152.537Z" fill="white"/>
<path d="M100.18 219.365C94.4861 219.542 88.7988 219.624 83.1114 219.712C82.4039 218.678 101.051 217.977 100.18 219.365Z" fill="white"/>
<path d="M101.045 215.591C97.8338 215.883 94.6228 216.135 91.405 216.346C88.5001 216.536 85.5884 216.638 82.6835 216.774C81.6767 216.033 101.528 214.421 101.045 215.591Z" fill="white"/>
<path d="M107.135 248.896C110.421 251.555 114.176 253.568 118.217 254.827C116.958 255.405 115.809 256.078 114.353 255.18C112.652 254.174 110.897 253.256 109.094 252.433C107.659 251.739 107.346 250.487 107.135 248.896Z" fill="white"/>
<path d="M130.911 247.067V235.341C131.734 235.824 132.306 236.64 132.476 237.579C132.673 239.497 132.632 241.435 132.83 243.346C132.972 244.856 132.224 246.312 130.904 247.067H130.911Z" fill="white"/>
<path d="M237.288 198.329C237.703 196.078 239.458 194.317 241.703 193.881C243.213 193.582 244.785 193.834 246.125 194.595C250.282 196.833 253.568 200.404 255.459 204.729C256.581 207.286 256.384 210.225 254.928 212.605C253.751 214.36 251.976 215.625 249.935 216.176C246.173 217.4 242.73 217.026 239.941 213.938C238.363 212.02 237.342 209.714 236.989 207.259C236.744 205.994 236.438 200.859 237.295 198.336L237.288 198.329ZM240.411 195.867C239.635 196.581 239.023 197.459 238.621 198.431C237.281 202.845 237.778 207.613 239.989 211.66C241.118 213.972 243.445 215.455 246.016 215.502C248.084 215.563 250.125 214.958 251.826 213.775C252.568 213.299 253.193 212.659 253.649 211.904C254.881 209.776 254.996 207.184 253.962 204.954C252.159 201.233 249.316 198.112 245.778 195.969C244.513 195.051 242.88 194.813 241.404 195.33C246.744 207.878 246.03 209.422 240.404 195.867H240.411Z" fill="white"/>
<path d="M87.8343 192.092C88.1676 190.623 88.5146 189.141 88.8343 187.665C88.9091 187.073 89.4194 186.645 90.0112 186.679C93.6372 186.447 97.2564 186.148 100.882 185.944C102.488 185.856 104.107 185.89 105.713 185.944C106.903 185.985 107.196 186.345 106.93 187.502C106.59 188.971 106.209 190.447 105.733 191.882C105.549 192.324 105.175 192.664 104.713 192.8C103.563 192.99 102.4 193.106 101.229 193.14C97.3177 193.323 93.3991 193.466 89.4874 193.63C88.2901 193.677 87.8207 193.228 87.8343 192.092ZM103.4 188.195C102.195 187.08 92.3038 187.264 91.3718 188.195H103.4ZM94.1747 190.127C93.2631 190.256 93.7801 191.011 94.3992 190.855C95.4672 190.807 96.5353 190.739 97.5966 190.623C98.032 190.569 98.9436 189.454 94.1747 190.127Z" fill="white"/>
<path d="M109.87 184.72C109.291 187.502 108.761 190.304 108.074 193.058C106.863 197.901 105.57 202.723 104.271 207.545C103.25 211.109 102.271 211.489 103.284 207.191C104.434 202.362 105.604 197.54 106.808 192.725C107.42 190.236 108.06 187.76 108.72 185.291C109.067 183.04 110.4 182.693 109.876 184.713L109.87 184.72Z" fill="white"/>
<path d="M144.605 152.734C144.878 150.789 145.143 148.891 145.395 147.096C148.3 147.096 151.136 147.246 154.075 147.246V152.442C150.925 152.537 147.81 152.632 144.605 152.734Z" fill="#00C26D"/>
<path d="M164.544 152.122C161.422 152.21 158.449 152.353 155.442 152.394C155.272 152.408 155.102 152.408 154.932 152.387C154.816 150.687 154.795 148.987 154.87 147.286C155.102 147.252 160.517 147.205 163.013 147.184C163.551 147.178 163.83 147.327 163.898 147.878C164.095 149.245 164.313 150.619 164.537 152.122H164.544Z" fill="#00C26D"/>
<path d="M172.803 147.144C175.245 147.144 177.449 147.137 179.66 147.15C179.871 147.15 180.075 147.246 180.211 147.402C181.028 148.993 181.817 150.592 182.674 152.333H181.075C179.082 152.319 177.089 152.285 175.095 152.292C174.578 152.367 174.102 152.006 174.027 151.489C174.027 151.489 174.027 151.483 174.027 151.476C173.667 150.088 173.245 148.701 172.803 147.137V147.144Z" fill="#00C26D"/>
<path d="M164.482 147.225H172.088C172.496 148.817 172.911 150.394 173.347 152.068H165.34C165.061 150.503 164.782 148.939 164.482 147.225Z" fill="#00C26D"/>
<path d="M125.679 216.176C124.169 216.169 123.726 215.686 123.747 214.142C123.747 213.543 123.788 212.945 123.89 212.353C124.692 208.286 125.475 204.226 126.352 200.186C126.59 199.2 127.005 198.268 127.577 197.438C127.965 196.955 128.536 196.649 129.155 196.581C133.067 196.282 136.985 196.003 140.904 195.867C149.986 195.568 159.075 195.35 168.157 195.112C168.728 195.092 169.293 195.112 169.858 195.201C171.259 195.241 172.409 196.33 172.518 197.731C173.055 200.587 173.572 203.457 174.035 206.327C174.307 207.98 174.518 209.646 174.654 211.319C174.899 212.469 174.171 213.605 173.014 213.856C172.98 213.863 172.946 213.87 172.912 213.877C170.803 214.421 168.653 214.781 166.483 214.958C158.136 215.461 130.23 216.196 125.672 216.169L125.679 216.176ZM171 202.893C171.007 202.73 171.021 202.56 171.034 202.396C168.701 201.771 166.272 202.192 163.864 202.077C163.551 200.703 163.238 199.37 162.932 198.03L162.551 198.105C162 199.431 162.653 200.791 162.646 202.301H153.183C153.095 201.077 153 199.805 152.904 198.54C152.796 198.533 152.687 198.533 152.578 198.526C151.959 199.744 152.347 201.138 152.068 202.424H143.197C143.251 201.254 143.299 200.152 143.346 199.043C143.217 199.03 143.081 199.009 142.958 198.989C142.727 200.132 142.475 201.267 142.217 202.512H133.808C133.924 201.39 134.04 200.247 134.155 199.098C134.012 199.077 133.863 199.05 133.72 199.016C133.387 200.227 133.06 201.444 132.74 202.648C131.523 202.75 130.366 202.845 129.21 202.947C129.21 203.083 129.216 203.226 129.216 203.362H132.625C132.244 204.511 131.944 205.695 131.747 206.892C131.631 208.089 131.094 208.497 129.978 208.531C129.264 208.599 128.556 208.715 127.856 208.885L127.903 209.286L131.237 209.075C130.774 210.741 130.645 212.489 130.849 214.203C130.938 214.217 131.026 214.23 131.101 214.244C131.448 212.496 131.788 210.755 132.162 208.885C135.142 208.715 138.094 208.545 141.169 208.368V213.523L141.537 213.543C142.156 211.891 141.918 210.068 142.258 208.313C145.489 208.13 148.659 207.946 151.843 207.769C151.911 209.572 151.408 211.347 152.551 212.85C152.653 212.85 152.762 212.843 152.87 212.843V207.762C156.632 207.579 160.19 207.409 163.728 207.232C163.912 208.034 164.143 208.823 164.415 209.599C164.633 209.952 164.905 210.265 165.231 210.531C165.347 210.143 165.415 209.742 165.429 209.334C165.327 208.647 165.191 207.96 165.014 207.286C166.51 207.042 167.898 206.824 169.293 206.593C169.279 206.463 169.259 206.334 169.245 206.205H164.823C164.592 205.124 164.374 204.124 164.109 202.879C166.504 202.9 168.755 202.9 171 202.9V202.893Z" fill="white"/>
<path d="M195.416 215.944C193.389 215.897 192.375 215.223 191.94 213.251C191.103 209.456 190.403 205.634 189.688 201.818C189.457 200.574 189.341 199.315 189.226 198.05C188.906 196.833 189.634 195.595 190.852 195.275C191.158 195.194 191.477 195.18 191.79 195.228C194.981 195.255 198.178 195.33 201.355 195.411C202.505 195.384 203.546 196.112 203.913 197.2C204.703 199.288 205.498 201.39 206.186 203.525C207.206 206.708 208.192 209.912 209.09 213.129C209.587 214.924 209.274 215.366 207.451 215.815C206.648 215.992 205.825 216.087 205.002 216.094C203.539 216.135 197.144 215.992 195.416 215.944ZM206.002 213.856C206.097 213.809 206.199 213.761 206.294 213.713C205.526 211.891 204.764 210.082 204.009 208.272C204.471 208.157 204.873 208.062 205.274 207.96C204.873 207.688 204.424 207.497 203.954 207.395C203.709 207.314 203.376 207.205 203.281 207.007C202.464 205.382 201.696 203.722 200.913 202.07C201.287 201.913 201.553 201.791 201.927 201.635C201.682 201.431 201.539 201.213 201.403 201.226C200.444 201.281 200.253 200.553 199.92 199.914C199.546 199.186 199.097 198.506 198.675 197.799C198.573 197.853 198.471 197.901 198.376 197.955C198.709 198.948 199.049 199.927 199.41 201.009H194.818C194.484 199.812 194.165 198.676 193.852 197.527C193.736 197.547 193.62 197.581 193.505 197.608C193.62 198.805 193.736 199.989 193.852 201.158C193.226 201.349 192.729 201.499 192.219 201.655C192.233 201.757 192.253 201.859 192.26 201.975C192.79 202.015 193.314 202.043 193.92 202.09C194.029 203.933 194.137 205.749 194.246 207.531C193.859 207.66 193.559 207.762 193.267 207.858V208.109C193.62 208.225 193.981 208.327 194.342 208.436C194.818 210.401 194.804 212.564 196.512 214.108C196.124 212.21 195.743 210.313 195.314 208.204C197.532 208.204 199.553 208.238 201.56 208.191C202.219 208.089 202.859 208.477 203.083 209.109C203.764 210.857 204.75 212.476 205.995 213.877L206.002 213.856Z" fill="white"/>
<path d="M178.551 205.593C177.823 205.681 177.136 205.219 176.952 204.511C176.449 202.464 176.088 200.383 175.857 198.288C175.707 196.357 176.531 195.602 178.503 195.473C180.333 195.343 182.17 195.33 184 195.309C184.864 195.194 185.674 195.745 185.885 196.595C186.422 198.86 186.939 201.138 187.334 203.437C187.517 204.301 186.966 205.144 186.109 205.328C186.041 205.341 185.973 205.355 185.912 205.355C184.864 205.579 179.939 205.606 178.558 205.6L178.551 205.593ZM180.157 202.41C181.034 202.342 182.102 202.444 182.953 202.369C183.184 202.961 183.177 203.274 183.361 203.763C183.544 204.294 183.857 204.375 183.823 203.689C183.885 203.192 183.953 202.682 184 202.233C185.701 202.104 185.898 201.696 185.32 201.56C184.674 201.424 184.694 201.56 183.769 201.383C183.572 201.342 183.612 200.873 183.585 200.431C183.572 200.132 183.49 199.73 183.49 199.445H185.51C186.3 199.213 185.742 198.819 184.919 198.826C184.34 198.826 183.762 198.778 183.191 198.683C182.959 196.806 182.388 196.445 182.299 197.234C182.197 197.697 182.381 198.118 182.272 198.581C181.544 198.581 180.531 198.554 179.782 198.554C179.639 198.125 179.503 197.71 179.361 197.295C179.225 196.847 179.109 196.847 179.082 197.329C179.034 197.792 178.993 198.261 178.946 198.724C178.347 198.935 177.769 198.934 177.197 199.145C176.51 199.343 176.871 199.587 177.163 199.574C177.762 199.574 178.483 199.445 179.116 199.445C179.156 200.118 179.204 200.907 179.231 201.397C178.742 201.587 178.34 201.567 177.932 201.723C177.687 201.784 177.102 202.24 177.973 202.226C178.435 202.308 178.905 202.376 179.361 202.458C179.537 202.791 179.524 203.314 179.701 203.648C179.857 204.192 180.129 204.131 180.095 203.648C180.163 203.342 180.088 202.798 180.143 202.403L180.157 202.41Z" fill="white"/>
<path d="M185.231 207.558C186.048 207.667 186.687 208.313 186.782 209.136C187.041 210.469 187.266 211.809 187.402 213.156C187.674 214.176 187.061 215.223 186.041 215.495C185.857 215.543 185.674 215.563 185.483 215.557C184.136 215.679 182.782 215.679 181.435 215.543C179.809 215.366 179.184 214.516 179.156 212.87C179.122 211.673 179.027 210.476 179 209.272C178.83 208.429 179.374 207.599 180.218 207.429C180.32 207.409 180.428 207.395 180.531 207.395C180.782 207.354 181.034 207.327 181.286 207.313C182.605 207.327 183.918 207.409 185.231 207.565V207.558ZM184.15 211.306C183.748 211.258 183.347 211.231 182.946 211.224C181.986 211.285 181.578 210.898 181.66 209.918C181.633 209.517 181.544 209.116 181.401 208.742C181.299 208.762 181.197 208.783 181.082 208.803C181.048 209.544 181.02 210.286 180.986 211.007C180.66 211.109 180.408 211.19 179.891 211.347C180.408 211.619 180.728 211.782 181.014 211.925C181.156 212.591 181.292 213.224 181.415 213.856C181.558 213.849 181.694 213.829 181.837 213.822C181.871 213.183 181.891 212.544 181.925 211.877L184.068 212.163C184.259 212.7 184.442 213.19 184.612 213.673C184.728 213.652 184.844 213.632 184.959 213.611C185.021 213.135 185.089 212.659 185.15 212.244L186.082 211.782C186.15 211.666 186.231 211.551 186.306 211.435C184.694 211.714 184.966 210.626 184.742 209.898C184.646 209.667 184.531 209.449 184.395 209.238C184.306 209.272 184.231 209.293 184.143 209.327V211.306H184.15Z" fill="white"/>
<path d="M205.777 112.886C205.866 106.262 206.362 99.6509 207.267 93.0946C207.458 91.4963 207.601 89.8776 207.832 88.2861C207.995 87.1435 208.294 86.8783 209.424 87.0891C212.989 87.7829 216.567 88.4426 220.084 89.3403C226.792 91.0406 233.5 92.7885 240.139 94.7337C246.99 96.7468 253.752 99.032 260.555 101.208C262.358 101.786 264.154 102.419 265.943 103.038C266.97 103.392 267.14 103.711 266.698 104.718C265.113 108.37 263.433 111.981 261.936 115.661C259.439 121.775 257.065 127.923 254.63 134.058C253.841 136.051 253.051 138.057 252.208 140.03C251.562 141.546 251.174 141.635 249.596 141.193C243.146 139.363 236.697 137.574 230.241 135.765C223.057 133.752 215.873 131.746 208.689 129.739C207.43 129.569 206.505 128.468 206.56 127.196C206.39 122.428 206.063 117.66 205.791 112.886H205.777ZM250.827 140.091C255.106 127.923 260.031 115.994 265.589 104.351C247.078 97.4813 228.214 92.6117 209.145 87.8645C208.587 93.6727 207.982 99.168 207.56 104.691C207.152 112.308 207.288 119.946 207.954 127.549C208.029 127.917 208.274 128.216 208.621 128.365C213.267 129.719 217.9 131.059 222.567 132.337C230.221 134.425 237.888 136.466 245.534 138.547C247.255 139.003 248.963 139.547 250.827 140.098V140.091Z" fill="white"/>
<path d="M120.604 126.108C120.624 126.822 120.175 127.475 119.502 127.713C115.855 129.678 112.222 131.651 108.576 133.582C99.7866 138.241 90.9835 142.872 82.1736 147.49C80.2824 148.483 78.2823 149.286 76.3162 150.136C75.7516 150.456 75.0305 150.259 74.7107 149.694C74.6835 149.653 74.6631 149.606 74.6427 149.558C72.6222 145.879 70.4452 142.281 68.5676 138.526C65.826 133.052 63.1796 127.522 60.7169 121.918C59.6489 119.15 58.7237 116.334 57.9481 113.471C57.6624 112.594 57.9821 112.097 58.8121 111.682C69.8058 106.343 80.7518 100.896 91.7931 95.6655C96.7252 93.3327 101.848 91.4079 106.889 89.2996C107.039 89.2451 107.188 89.1975 107.338 89.1567C109.685 88.4018 110.236 88.599 110.937 90.9454C112.08 94.8153 113.052 98.7464 114.161 102.63C115.604 107.676 117.155 112.675 118.576 117.722C119.345 120.497 119.93 123.319 120.604 126.101V126.108ZM75.5951 149.374C77.2482 148.531 78.9082 147.728 80.5069 146.851C84.3778 144.722 88.1807 142.451 92.106 140.417C100.827 135.888 109.603 131.467 118.359 127.019C118.985 126.828 119.332 126.169 119.141 125.543C119.134 125.509 119.121 125.482 119.107 125.448C118.447 123.101 117.896 120.735 117.23 118.402C115.638 112.845 113.957 107.309 112.406 101.746C111.406 98.1887 110.569 94.5909 109.651 90.9999C109.501 90.4218 109.406 89.7484 108.488 90.1429C102.222 92.843 95.8885 95.3866 89.7045 98.2567C79.6225 102.936 69.6357 107.826 59.6149 112.628C59.1931 112.832 59.023 113.029 59.1863 113.58C60.7986 118.674 62.8191 123.625 65.2273 128.393C68.6424 135.316 72.0712 142.254 75.5883 149.374H75.5951Z" fill="white"/>
<path d="M191.778 85.45C192.757 85.45 193.098 85.8377 193.043 86.7558C192.723 92.2852 192.274 97.8077 192.172 103.344C191.989 110.846 191.431 118.327 190.492 125.774C190.363 126.815 190.315 127.855 190.193 128.896C190.043 130.154 189.546 130.583 188.267 130.623C181.213 130.827 174.144 130.957 167.09 131.242C159.967 131.535 152.858 131.984 145.749 132.344C143.347 132.46 140.939 132.494 138.544 132.596C137.85 132.63 137.578 132.365 137.524 131.691C137.088 126.713 136.619 121.741 136.19 116.756C136.17 116.538 134.047 91.8499 133.986 89.9864C133.837 89.109 134.422 88.2793 135.292 88.1229C135.408 88.1025 135.531 88.0957 135.646 88.1025C141.381 87.5788 147.116 86.9599 152.858 86.6062C160.348 86.1301 186.308 85.4432 191.778 85.45ZM191.628 86.7762C191.54 86.7694 191.424 86.7558 191.295 86.7558C183.852 86.9123 176.417 86.9871 168.967 87.2523C161.913 87.4972 154.865 87.8984 147.817 88.2997C143.959 88.5105 140.109 88.8778 136.265 89.1362C135.442 89.1906 135.272 89.6667 135.265 90.3264C135.265 90.8025 136.34 99.1816 136.796 104.956C137.333 111.648 137.694 118.347 138.177 125.033C138.327 127.162 138.626 129.284 138.844 131.27C155.545 130.515 172.083 129.78 188.696 129.039C188.839 127.726 189.023 126.284 189.152 124.842C189.58 120.272 190.097 115.715 190.376 111.145C190.655 106.602 190.635 102.031 190.859 97.4813C191.036 93.9311 191.37 90.4081 191.628 86.783V86.7762Z" fill="white"/>
<path d="M132.36 208.171C132.789 206.538 133.183 205.022 133.585 203.464H141.946C141.714 204.818 141.483 206.137 141.238 207.497L132.354 208.171H132.36Z" fill="white"/>
<path d="M152.041 203.478V206.831C148.809 207.035 145.639 207.252 142.312 207.463C142.537 206.103 142.741 204.817 142.952 203.491C146.007 203.484 149 203.484 152.034 203.484L152.041 203.478Z" fill="white"/>
<path d="M153.156 206.764V203.478C156.408 203.369 159.64 203.253 162.959 203.138C163.191 204.185 163.408 205.179 163.64 206.219C160.116 206.41 156.68 206.58 153.156 206.764Z" fill="white"/>
<path d="M202.179 207.402H195.295C195.152 205.661 194.995 203.818 194.832 201.866C196.383 201.866 197.9 201.852 199.404 201.879C199.635 201.92 199.839 202.063 199.955 202.267C200.703 203.926 201.411 205.606 202.179 207.395V207.402Z" fill="white"/>
<path d="M180.062 201.363C180.007 200.703 179.946 200.132 179.898 199.458H182.354C182.49 199.989 182.62 200.798 182.756 201.363C181.817 201.458 180.98 201.268 180.062 201.363Z" fill="white"/>
<path d="M236.88 129.875C237.948 124.904 239.05 119.939 240.241 114.987C241.363 110.322 242.608 105.69 243.819 101.045C243.969 100.494 244.187 99.9704 244.479 99.4807C244.853 98.6986 245.867 98.5149 245.438 99.8412C245.166 101.045 244.813 102.222 244.52 103.419C242.683 111.097 240.894 118.789 239.016 126.447C236.69 136.139 235.744 134.786 236.887 129.868L236.88 129.875Z" fill="white"/>
<path d="M215.131 125.999C215.321 122.074 219.24 94.8765 220.043 92.4009C220.505 90.7754 220.9 92.1084 220.539 93.3191C219.784 97.9983 218.934 102.671 218.253 107.37C217.73 111.002 217.471 114.668 217.002 118.313C216.668 120.877 216.185 123.428 215.75 125.978C215.696 126.318 215.131 127.427 215.131 126.006V125.999Z" fill="white"/>
<path d="M245.31 108.023C249.494 109.241 253.562 110.805 257.481 112.709C258.678 113.525 257.964 114.069 257.032 113.689C253.127 112.145 249.249 110.56 245.365 108.969C244.31 108.581 244.439 107.758 245.31 108.016V108.023Z" fill="white"/>
<path d="M243.105 117.769C246.996 119.232 250.982 120.469 254.581 122.632C254.887 122.789 255.173 122.979 255.432 123.21C256.112 123.741 255.676 124.285 254.969 124.04C254.527 123.89 254.105 123.666 253.67 123.476C250.976 122.258 248.268 121.054 245.581 119.81C244.499 119.306 243.451 118.708 242.39 118.157C242.261 117.98 241.723 117.252 243.111 117.769H243.105Z" fill="white"/>
<path d="M223.376 94.4548C226.737 95.1621 230.057 96.0327 233.404 96.8284C233.655 96.8556 233.9 96.9372 234.118 97.0597C235.329 97.4541 234.785 98.3519 233.798 98.1206C231.24 97.5561 228.696 96.9576 226.165 96.3183C224.975 96.0191 223.805 95.6314 222.648 95.2369C222.274 95.1417 221.716 94.1079 223.376 94.4616V94.4548Z" fill="white"/>
<path d="M248.71 138.016C245.397 136.887 242.098 135.731 238.812 134.555C237.805 134.228 237.805 133.405 238.751 133.623C242.186 134.752 245.622 135.908 249.057 137.085C250.785 137.778 249.928 138.384 248.717 138.016H248.71Z" fill="white"/>
<path d="M249.908 132.283C248.711 131.868 247.561 131.541 246.466 131.072C244.527 130.242 242.615 129.345 240.717 128.427C239.785 128.073 240.071 127.189 240.976 127.624C243.996 128.821 246.996 130.038 249.99 131.29C251.044 131.875 250.622 132.548 249.908 132.283Z" fill="white"/>
<path d="M251.561 106.725C249.71 106.038 247.894 105.228 246.077 104.426C245.533 104.194 245.533 103.276 246.363 103.494C247.064 103.657 247.758 103.875 248.431 104.133C249.969 104.704 251.486 105.283 253.01 105.888C253.404 106.051 254.037 107.432 251.561 106.711V106.725Z" fill="white"/>
<path d="M250.235 134.739C249.323 135.188 243.017 132.433 242.473 131.338C243.507 130.916 249.725 133.637 250.235 134.739Z" fill="white"/>
<path d="M252.392 126.877C251.61 126.591 250.882 126.353 250.188 126.06C249.113 125.611 248.045 125.128 246.997 124.611C246.358 124.264 246.698 123.516 247.283 123.822C249.059 124.468 250.807 125.19 252.583 125.863C253.644 126.258 253.045 127.271 252.399 126.877H252.392Z" fill="white"/>
<path d="M248.391 114.669C247.01 114.124 245.642 113.56 244.289 112.941C244.037 112.832 243.642 111.743 244.629 112.077C245.935 112.539 247.221 113.077 248.506 113.587C250.085 114.226 249.384 115.131 248.391 114.669Z" fill="white"/>
<path d="M248.493 118.879C246.901 118.056 245.248 117.348 243.554 116.77C242.915 116.606 242.983 115.797 243.922 116.062C244.473 116.198 245.017 116.368 245.548 116.559C246.656 117.008 247.731 117.532 248.84 117.981C249.099 118.035 249.269 118.294 249.214 118.552C249.16 118.811 248.901 118.981 248.643 118.926C248.595 118.913 248.541 118.899 248.5 118.872L248.493 118.879Z" fill="white"/>
<path d="M245.473 127.353C244.411 127.815 241.03 126.461 240.643 125.468C242.452 125.366 244.214 126.053 245.473 127.353Z" fill="white"/>
<path d="M246.289 101.276C248.187 101.644 249.997 102.385 251.616 103.453C250.35 103.855 246.677 102.351 246.289 101.276Z" fill="white"/>
<path d="M208.811 120.653C209.954 120.884 211.158 120.694 212.307 120.884C213.525 121.088 213.212 121.966 212.165 121.857C210.811 121.707 210.219 121.673 208.661 121.415C208.117 121.041 207.858 120.456 208.811 120.653Z" fill="white"/>
<path d="M210.691 94.1147C211.874 94.2644 213.044 94.5025 214.194 94.8291C215.398 95.2508 214.371 95.6454 213.881 95.6454C212.942 95.5162 212.017 95.2849 211.119 94.9719C209.589 94.6522 210.555 94.0875 210.697 94.1215L210.691 94.1147Z" fill="white"/>
<path d="M246.009 123.843C244.526 123.748 243.091 123.258 241.859 122.428C241.751 122.326 241.703 122.17 241.73 122.027C241.812 121.898 241.948 121.816 242.091 121.796C243.574 122.061 244.941 122.782 246.002 123.85L246.009 123.843Z" fill="white"/>
<path d="M209.654 103.29C210.525 103.514 211.184 103.739 211.858 103.868C212.892 104.065 212.457 105.065 211.613 104.841C210.98 104.677 210.32 104.562 209.681 104.419C208.756 104.222 208.681 103.283 209.654 103.283V103.29Z" fill="white"/>
<path d="M214.832 93.2513C213.329 93.2921 211.839 93.0064 210.451 92.4213C211.519 91.741 214.261 92.2377 214.832 93.2513Z" fill="white"/>
<path d="M211.498 113.186C210.681 113.131 209.96 113.111 209.246 113.022C209.069 112.995 208.783 112.716 208.804 112.573C208.817 112.39 209.083 112.09 209.246 112.09C210.062 112.07 210.872 112.104 211.688 112.179C212.178 112.084 212.552 113.192 211.498 113.192V113.186Z" fill="white"/>
<path d="M241.903 131.141C240.957 131.243 240.011 130.923 239.324 130.27C239.215 130.161 239.168 130.012 239.195 129.869C239.27 129.746 239.399 129.658 239.542 129.637C240.501 129.794 241.358 130.338 241.903 131.148V131.141Z" fill="white"/>
<path d="M211.144 123.271C210.362 123.476 209.532 123.394 208.797 123.047C208.545 122.931 208.219 122.319 208.913 122.421C209.586 122.516 210.79 122.618 211.137 123.271H211.144Z" fill="white"/>
<path d="M208.811 114.341C209.477 113.716 211.083 113.913 211.083 114.498C211.083 115.015 209.641 114.988 208.811 114.341Z" fill="white"/>
<path d="M106.174 112.546C105.644 112.056 105.181 111.505 104.786 110.9C103.732 108.676 102.793 106.398 101.813 104.14C101.079 102.432 100.351 100.712 99.6297 98.9911C99.446 98.549 99.2487 98.3246 98.6976 98.5762C92.228 101.582 85.7311 104.548 79.2683 107.581C74.581 109.771 69.9345 112.063 65.2473 114.28C64.5738 114.6 64.4649 114.953 64.7575 115.6C66.846 120.163 68.8733 124.761 71.0162 129.297C72.7102 132.895 74.5402 136.432 76.309 139.995C76.4518 140.281 76.5947 140.56 76.7444 140.832C76.9552 141.464 77.6355 141.811 78.2682 141.6C78.3703 141.566 78.4655 141.519 78.554 141.464C80.7785 140.267 82.9759 139.023 85.2073 137.846C88.4999 136.105 91.813 134.384 95.1329 132.691C98.0105 131.412 97.752 132.562 95.5342 133.704C92.4933 135.391 89.4183 137.01 86.3706 138.676C84.4658 139.73 82.6153 140.893 80.6765 141.907C77.6696 143.491 76.5403 143.165 75.0096 140.125C71.2475 132.684 67.2065 125.393 64.0568 117.654C63.703 116.742 63.4173 115.81 63.2064 114.858C63.0703 114.239 63.4309 113.62 64.0363 113.444C73.6898 108.948 83.3433 104.446 92.9831 99.9296C94.8131 99.0727 96.6772 98.2634 98.5208 97.4404C99.5684 96.9779 99.9086 97.0323 100.419 98.0729C101.582 100.453 102.691 102.861 103.779 105.282C104.582 107.071 105.324 108.88 106.065 110.689C106.269 111.206 106.399 111.75 106.562 112.274C106.433 112.369 106.303 112.457 106.167 112.532L106.174 112.546Z" fill="white"/>
<path d="M70.0645 120.041C70.4522 119.68 77.7314 115.28 81.0717 113.566C86.2692 110.893 91.5211 108.343 96.7594 105.745C98.12 105.072 98.2153 105.004 98.9976 106.187C99.365 106.731 99.7664 107.261 100.073 107.84C100.447 108.52 100.215 109.003 99.5079 109.37C96.0043 111.193 92.5212 113.049 89.0244 114.879C84.1535 117.422 79.2689 119.939 74.3912 122.483C73.8877 122.816 73.3707 123.115 72.8401 123.394C72.5271 123.51 71.8741 123.489 71.7584 123.299C71.1461 122.319 70.6699 121.258 70.0645 120.041ZM96.3377 107.493C95.2356 107.969 94.1471 108.472 93.0586 109.003C86.7114 112.022 80.5819 115.464 74.6905 119.306C74.3912 119.504 72.738 120.905 75.7041 119.442C80.337 116.906 84.9562 114.335 89.6095 111.839C91.7524 110.689 93.9906 109.71 96.1676 108.622C98.5895 107.486 97.0316 107.193 96.3309 107.493H96.3377Z" fill="#00C26D"/>
<path d="M116.148 123.584C116.216 124.441 115.787 125.264 115.039 125.693C113.256 126.815 111.46 127.923 109.596 128.916C107.256 130.29 104.739 131.344 102.113 132.052C101.079 132.399 99.9429 131.97 99.3987 131.025C97.6639 128.066 95.9631 125.074 94.4053 122.013C93.7386 120.748 94.2216 119.191 95.4801 118.517C95.5278 118.49 95.5754 118.47 95.623 118.449C98.9769 116.756 102.338 115.083 105.705 113.437C107.215 112.702 108.739 112.036 110.256 111.342C111.256 110.886 111.807 110.975 112.304 111.961C112.814 113.042 113.256 114.158 113.61 115.294C114.352 117.47 115.073 119.653 115.773 121.843C115.93 122.421 116.059 122.999 116.141 123.591L116.148 123.584ZM111.154 112.321C110.937 112.355 110.719 112.41 110.515 112.478C105.834 114.681 101.14 116.878 96.4734 119.129C95.2284 119.728 95.0175 120.707 95.7182 122.006C97.0244 124.421 98.351 126.828 99.7048 129.222C100.705 130.977 100.957 131.059 102.882 130.426C102.943 130.413 103.004 130.385 103.059 130.358C106.637 128.576 110.243 126.822 113.794 124.985C114.91 124.407 115.039 123.509 114.569 122.217C113.712 119.844 112.916 117.456 112.093 115.076C111.794 114.192 111.488 113.308 111.161 112.342L111.154 112.321Z" fill="white"/>
<path d="M76.0172 125.808C77.5139 124.863 78.997 123.897 80.5481 123.06C86.9973 119.592 93.4534 116.15 99.9298 112.729C100.209 112.58 100.515 112.478 100.794 112.342C102.454 111.539 102.365 112.553 101.209 113.212C98.2019 114.817 95.1609 116.354 92.1472 117.966C86.7796 120.843 81.4256 123.754 76.0649 126.645C75.8948 126.747 74.1736 127.352 76.0241 125.815L76.0172 125.808Z" fill="white"/>
<path d="M97.2903 102.841C93.3921 104.854 89.4736 106.826 85.5823 108.833C79.8201 111.818 74.058 114.845 68.3027 117.844C68.119 117.939 66.7516 118.109 68.9421 116.769C74.1464 113.927 79.3303 111.043 84.5891 108.295C88.6709 106.166 92.8411 104.208 96.9841 102.188C97.1678 102.106 97.3787 102.188 97.4603 102.365C97.542 102.548 97.4603 102.759 97.2835 102.841H97.2903Z" fill="white"/>
<path d="M89.1945 124.598C85.344 126.835 81.201 128.93 78.854 130.107C78.4186 129.719 89.8068 122.911 89.1945 124.598Z" fill="white"/>
<path d="M80.9968 132.141C81.9424 131.522 82.9424 130.991 83.9901 130.562C85.2487 130.113 85.1534 131.113 84.6092 131.413C83.0989 132.256 81.575 133.052 80.0376 133.835C79.8267 133.937 78.2688 133.991 80.9968 132.141Z" fill="white"/>
<path d="M86.1053 130.692C85.7992 130.924 85.1529 130.359 85.84 129.856C86.6564 129.257 87.4727 128.679 88.3163 128.141C88.8742 127.787 89.4592 127.474 90.0647 127.209C90.2892 127.134 90.5409 127.175 90.7314 127.318C90.8334 127.529 90.8266 127.774 90.7042 127.978C89.1667 128.924 87.2687 130.019 86.0985 130.699L86.1053 130.692Z" fill="white"/>
<path d="M90.0984 116.66C89.8194 117.565 85.7649 119.715 84.1934 119.872C84.656 118.824 88.8194 116.538 90.0984 116.66Z" fill="white"/>
<path d="M67.2271 115.654C67.3291 114.872 67.5536 114.872 67.9482 114.872C68.2543 114.967 68.472 115.246 68.4924 115.566C68.6421 116.3 68.3427 116.498 67.9822 116.498C67.54 116.661 67.193 115.885 67.2202 115.654H67.2271Z" fill="white"/>
<path d="M181.15 124.727C181.15 125.489 180.783 125.774 180.041 125.801C174 126.046 167.966 126.312 161.925 126.59C160.149 126.672 159.605 126.223 159.421 124.326C159.149 121.367 158.904 118.402 158.68 115.436C158.36 111.458 158.068 107.486 157.768 103.514C157.557 100.719 157.714 100.555 160.476 100.433C166.204 100.188 171.925 99.9298 177.653 99.6781C180.749 99.5421 180.83 99.6645 180.933 102.698C181.048 106.187 181.143 120.864 181.157 124.72L181.15 124.727ZM160.83 125.414C167.197 125.135 173.504 124.87 179.817 124.591V100.916L158.877 101.875C159.523 109.703 160.17 117.511 160.83 125.414Z" fill="white"/>
<path d="M185.368 94.6996C185.354 98.0798 185.456 97.5289 182.429 97.6309C172.183 97.9778 161.938 98.3382 151.693 98.6987C148.563 98.8143 145.434 99.0048 142.311 99.1612C142.121 99.168 141.93 99.168 141.74 99.1612C140.087 99.1272 140.094 99.1204 140.039 97.4881C140.005 96.5359 139.944 95.5974 139.91 94.6452C139.787 94.0059 140.209 93.3938 140.849 93.2714C140.93 93.2578 141.012 93.251 141.087 93.251C142.876 93.0741 144.665 92.8021 146.468 92.7001C158.06 92.0608 169.653 91.3874 181.286 91.4623C182.333 91.4691 183.374 91.5507 184.415 91.5439C184.987 91.5439 185.231 91.7887 185.265 92.3124C185.306 93.1217 185.333 93.9039 185.374 94.6996H185.368ZM141.1 98.1682C141.883 98.1682 142.583 98.2022 143.271 98.1614C151.298 97.7738 159.332 97.2977 167.367 96.9984C172.748 96.8012 178.129 96.8488 183.51 96.808C184.204 96.8012 184.51 96.5631 184.49 95.8762C184.47 94.9921 184.442 94.1011 184.456 93.217C184.463 92.5777 184.197 92.4008 183.585 92.462C182.735 92.5504 181.884 92.564 181.027 92.5981C170.292 92.9653 159.564 93.3258 148.842 93.6794C146.189 93.7747 143.543 93.9379 140.862 94.0807C140.944 95.5022 141.019 96.7876 141.094 98.1546L141.1 98.1682Z" fill="white"/>
<path d="M142.523 105.996C142.564 102.195 142.537 102.072 145.102 101.657C147.775 101.229 150.503 101.079 153.211 100.807C154 100.726 154.374 101.161 154.469 101.902C154.558 102.433 154.612 102.963 154.626 103.5C154.68 108.03 155.089 112.546 155.85 117.008C156.218 119.837 156.544 122.659 156.871 125.482C156.98 126.434 156.599 126.856 155.592 126.93C152.463 127.141 149.333 127.352 146.204 127.556C144.762 127.651 144.605 127.543 144.415 126.046C144.088 123.407 143.782 120.769 143.537 118.123C143.142 113.668 142.789 109.22 142.51 105.996H142.523ZM145.53 126.563C148.864 126.264 152.238 125.951 155.497 125.659C154.823 117.783 152.857 110.091 153.476 101.97C150.184 102.229 147.047 102.487 143.687 102.759C144.306 110.839 144.925 118.708 145.53 126.556V126.563Z" fill="white"/>
<path d="M100.691 121.666C103.323 120.456 105.963 119.259 108.602 118.069C108.813 118.001 109.024 117.939 109.235 117.892C110.528 117.538 110.058 118.483 109.487 118.674C106.875 119.782 104.262 120.857 101.629 121.938C99.6905 122.789 100.486 121.762 100.691 121.666Z" fill="white"/>
<path d="M102.243 118.64C103.461 117.926 104.74 117.307 106.059 116.797C106.801 116.491 107.665 117.076 106.454 117.525C105.148 118.212 103.801 118.831 102.42 119.368C101.787 119.525 101.243 119.259 102.236 118.64H102.243Z" fill="white"/>
<path d="M104.677 122.768C104.99 121.925 105.928 121.496 106.765 121.816C106.806 121.83 106.847 121.85 106.888 121.87C106.405 122.598 105.527 122.959 104.67 122.775L104.677 122.768Z" fill="white"/>
<path d="M161.762 107.431C166.755 107.234 171.755 107.044 176.755 106.894C178.068 108.336 161.204 108.642 161.762 107.431Z" fill="white"/>
<path d="M172.068 113.675C170.714 113.804 169.36 113.879 168 113.927C166.415 113.981 164.83 114.008 163.258 113.981C162.918 113.974 162.231 113.355 163.17 113.144C165.489 112.811 167.836 112.675 170.177 112.75C171.027 112.709 171.871 112.723 172.721 112.75C172.891 112.763 173.544 113.539 172.075 113.675H172.068Z" fill="white"/>
<path d="M174.64 110.03C173.565 110.887 167.225 111.152 166.436 110.424C167.272 109.553 173.388 109.22 174.64 110.03Z" fill="white"/>
<path d="M169.429 103.793C168.327 103.882 166.81 103.256 169.368 102.936C171.381 102.739 173.402 102.426 175.416 102.426C176.98 102.426 176.327 103.371 175.388 103.514C173.905 103.664 169.926 103.752 169.422 103.793H169.429Z" fill="white"/>
<path d="M176.035 113.532C175.593 113.532 175.151 113.485 174.716 113.505C174.464 113.539 174.239 113.362 174.205 113.111C174.171 112.859 174.348 112.634 174.6 112.6C175.566 112.451 176.539 112.396 177.512 112.444C178.396 112.444 178.274 113.362 177.532 113.424C177.035 113.471 176.539 113.505 176.035 113.526V113.532Z" fill="white"/>
<path d="M165.688 110.431C164.803 111.22 162.361 111.261 161.688 110.54C162.912 109.819 164.422 109.778 165.688 110.431Z" fill="white"/>
<path d="M163.149 103.174C164.19 103.092 165.237 103.085 166.285 103.147C167.897 103.106 167.333 103.711 166.435 103.861C165.285 104.051 163.897 103.854 162.727 103.956C162.231 103.949 161.387 103.351 163.149 103.174Z" fill="white"/>
<path d="M176.953 109.309C177.178 109.295 177.409 109.322 177.627 109.397C177.838 109.499 177.981 109.696 178.022 109.928C178.015 110.077 177.715 110.302 177.518 110.329C177.144 110.383 176.763 110.377 176.396 110.295C175.763 110.2 175.668 109.567 176.328 109.363C176.539 109.329 176.749 109.309 176.96 109.302L176.953 109.309Z" fill="white"/>
<path d="M171.925 95.0943C167.347 95.2916 162.762 95.4753 158.183 95.6181C157.115 95.6181 157.455 94.7881 158.163 94.7337C162.666 94.3936 167.19 94.3051 171.708 94.1351C173.075 94.1079 172.898 95.1079 171.932 95.1011L171.925 95.0943Z" fill="white"/>
<path d="M152.115 96.1011C150.782 96.4004 150.094 95.3187 152.054 95.1146C152.87 95.0262 153.666 94.8629 154.482 94.7949C156.061 94.6656 155.748 95.7473 154.55 95.8493C153.829 95.9174 152.197 96.0875 152.108 96.1011H152.115Z" fill="white"/>
<path d="M174.6 95.1216C174.457 95.0672 174.273 94.8903 174.273 94.761C174.307 94.5842 174.423 94.4413 174.586 94.3801C175.328 94.2508 176.069 94.1624 176.818 94.1147C177.022 94.1352 177.199 94.2576 177.28 94.4413C177.28 94.6454 177.165 94.8359 176.988 94.9379C176.199 95.108 175.396 95.1692 174.593 95.1284L174.6 95.1216Z" fill="white"/>
<path d="M146.66 112.22C148.102 112.056 149.544 111.914 150.966 111.669C152.551 111.397 152.272 112.73 151.02 112.764C149.673 112.92 148.319 112.995 146.972 113.056C145.925 113.165 145.612 112.349 146.653 112.227L146.66 112.22Z" fill="white"/>
<path d="M147.497 108.295C148.524 108.139 149.558 108.044 150.592 108.016C151.714 108.016 151.347 108.948 150.776 108.921C149.449 108.962 148.102 108.948 146.775 108.948C146.048 108.955 146.048 108.336 147.497 108.302V108.295Z" fill="white"/>
<path d="M147.291 105.888C146.386 105.888 146.08 104.956 147.284 104.752C148.053 104.575 148.835 104.459 149.617 104.405C150.719 104.405 150.917 105.854 149.971 105.881C149.08 105.942 148.182 105.942 147.284 105.888H147.291Z" fill="white"/>
<path d="M69.4048 114.328C69.5068 113.546 69.7313 113.546 70.1259 113.546C70.432 113.641 70.6497 113.92 70.6701 114.24C70.8198 114.974 70.5205 115.172 70.1599 115.172C69.7177 115.328 69.3708 114.559 69.398 114.328H69.4048Z" fill="white"/>
<path d="M71.269 113.335C71.3711 112.553 71.5956 112.553 71.9902 112.553C72.2963 112.648 72.514 112.927 72.5344 113.247C72.6841 113.981 72.3847 114.179 72.031 114.179C71.5956 114.342 71.2418 113.566 71.269 113.335Z" fill="white"/>
</svg>
